<svg height="512pt" viewBox="-81 0 512 512.12469" width="512pt" xmlns="http://www.w3.org/2000/svg"><path d="m230.890625 434.542969c-.085937 3.242187-.257813 5.71875-.34375 7.253906.007813.65625-.019531 1.3125-.085937 1.964844l-57.597657 37.375-4.269531-15.277344-49.066406-175.699219c-19.710938-39.425781-23.039063-93.527344-20.90625-140.203125 1.613281-33.175781 5.75-66.183593 12.375-98.730469-6.742188 40.703126 13.398437 108.375 47.617187 168.703126l31.828125 48.300781c9.933594 14.402343 17.828125 30.109375 23.464844 46.675781 12.457031 38.617188 18.199219 79.082031 16.984375 119.636719zm0 0" fill="#00695c"/><path d="m203.070312 434.542969c-.085937 3.242187-.257812 5.71875-.339843 7.253906.007812.65625-.023438 1.3125-.085938 1.964844l-34.050781 22.097656-49.066406-175.699219c-19.710938-39.425781-23.039063-93.527344-20.90625-140.203125 8.699218 24.203125 19.460937 47.613281 32.171875 69.972657l31.828125 48.300781c9.933594 14.402343 17.832031 30.109375 23.46875 46.675781 12.457031 38.617188 18.199218 79.082031 16.980468 119.636719zm0 0" fill="#009284"/><path d="m334.058594 256.113281c-3.839844 22.441407-11.691406 48.808594-31.660156 62.207031-14.675782 9.898438-31.914063 13.226563-45.484376 25.34375-14.605468 15.199219-26.136718 33.078126-33.960937 52.652344l-4.777344-40.363281-4.78125-40.191406c6.136719-12.191407 16.167969-21.980469 28.503907-27.820313 17.664062-8.023437 36.777343-8.105468 49.152343-24.660156 6.945313-9.53125 12.28125-20.140625 15.785157-31.402344 5.496093-17.03125 8.511718-34.761718 8.960937-52.652344 17.40625 13.484376 21.503906 58.28125 18.261719 76.886719zm0 0" fill="#2e7d32"/><path d="m76.863281 460.828125s.511719-1.109375 1.363281-3.074219c4.695313-11.519531 18.007813-53.078125-18.429687-82.261718-42.667969-34.132813-42.667969-110.933594-42.667969-110.933594 10.28125 20 24.847656 37.484375 42.667969 51.203125 19.710937 13.140625 39.507813 21.246093 51.371094 39.933593l59.5625 97.664063zm0 0" fill="#009284"/><path d="m42.730469 25.625c0 9.425781-7.640625 17.066406-17.066407 17.066406-9.425781 0-17.070312-7.640625-17.070312-17.066406s7.644531-17.066406 17.070312-17.066406c9.425782 0 17.066407 7.640625 17.066407 17.066406zm0 0" fill="#00b8d0"/><path d="m341.394531 110.960938c0 9.425781-7.640625 17.066406-17.066406 17.066406s-17.066406-7.640625-17.066406-17.066406c0-9.425782 7.640625-17.066407 17.066406-17.066407s17.066406 7.640625 17.066406 17.066407zm0 0" fill="#00b8d0"/><path d="m220.90625 464.582031-33.109375-6.742187-50.6875-10.324219c-15.617187-37.378906-30.296875-81.921875-26.027344-123.050781 4.4375-43.863282 34.898438-78.335938 53.929688-116.566406 12.199219-29.238282 19.492187-60.289063 21.589843-91.902344 3.839844-40.535156 2.304688-82.433594-7.339843-107.4375.769531 2.050781 5.460937 5.035156 6.996093 6.742187 24.066407 26.199219 26.96875 61.183594 27.992188 94.890625 1.109375 40.191406 1.023438 79.703125-10.839844 118.613282-11.09375 36.097656-26.367187 71.679687-27.644531 109.996093-1.914063 32.863281 5.640625 65.589844 21.757813 94.292969 2.21875 3.753906 20.566406 28.160156 23.382812 31.488281zm0 0" fill="#2e7d32"/><path d="m306.238281 256.113281c-3.839843 22.441407-11.691406 48.808594-31.660156 62.207031-14.675781 9.898438-31.914063 13.226563-45.480469 25.34375-4.007812 3.757813-7.664062 7.867188-10.921875 12.289063l-4.78125-40.191406c6.136719-12.191407 16.167969-21.980469 28.503907-27.820313 17.664062-8.023437 36.777343-8.105468 49.152343-24.660156 6.945313-9.53125 12.28125-20.140625 15.785157-31.402344.75 8.070313.550781 16.207032-.597657 24.234375zm0 0" fill="#4cab50"/><path d="m187.796875 457.839844-50.6875-10.324219c-15.617187-37.378906-30.296875-81.921875-26.027344-123.050781 4.4375-43.863282 34.898438-78.335938 53.929688-116.566406 12.199219-29.238282 19.492187-60.289063 21.589843-91.902344.9375 38.226562.253907 75.773437-11.09375 112.808594-11.007812 36.097656-26.28125 71.679687-27.648437 109.996093-1.878906 32.871094 5.699219 65.59375 21.84375 94.292969 1.625 2.730469 11.691406 16.210938 18.09375 24.746094zm0 0" fill="#4cab50"/><path d="m210.238281 452.464844c-15.265625-6.097656-31.605469-9.058594-48.042969-8.703125-19.085937-.679688-38.027343 3.523437-55.039062 12.199219l6.230469 38.488281c15.476562 6.332031 32.089843 9.410156 48.808593 9.042969 16.9375.355468 33.761719-2.8125 49.410157-9.300782zm0 0" fill="#607d87"/><path d="m119.527344 477.894531c0 14.136719-11.460938 25.597657-25.597656 25.597657-14.140626 0-25.601563-11.460938-25.601563-25.597657 0-14.140625 11.460937-25.601562 25.601563-25.601562 14.136718 0 25.597656 11.460937 25.597656 25.601562zm0 0" fill="#cbd4d8"/><path d="m264.59375 472.558594c0 17.085937-13.847656 30.933594-30.929688 30.933594-17.085937 0-30.933593-13.847657-30.933593-30.933594 0-17.082032 13.847656-30.933594 30.933593-30.933594 17.082032 0 30.929688 13.851562 30.929688 30.933594zm0 0" fill="#cbd4d8"/><path d="m25.664062.0273438c-14.140624 0-25.601562 11.4609372-25.601562 25.5976562 0 14.140625 11.460938 25.601562 25.601562 25.601562 14.136719 0 25.597657-11.460937 25.597657-25.601562 0-6.789062-2.695313-13.300781-7.496094-18.101562-4.800781-4.800782-11.3125-7.4960942-18.101563-7.4960942zm0 34.1328122c-4.714843 0-8.535156-3.820312-8.535156-8.535156 0-4.710938 3.820313-8.53125 8.535156-8.53125 4.710938 0 8.53125 3.820312 8.53125 8.53125 0 2.265625-.898437 4.433594-2.5 6.035156-1.597656 1.601563-3.769531 2.5-6.03125 2.5zm0 0"/><path d="m262.597656 350.03125c7.136719-5.742188 15.117188-10.347656 23.65625-13.65625 7.277344-3.039062 14.28125-6.703125 20.929688-10.945312 17.921875-12.09375 29.519531-34.304688 35.3125-67.910157 2.96875-17.195312.929687-67.738281-21.488282-85.058593-2.574218-1.992188-6.058593-2.339844-8.980468-.902344s-4.769532 4.414062-4.765625 7.667968c0 .488282-.339844 48.8125-23.039063 78.941407-7.417968 8.234375-17.363281 13.769531-28.269531 15.734375-2.613281.804687-5.285156 1.640625-7.964844 2.5625 1.066407-19.132813 4.507813-53.992188 15.6875-76.332032 16.167969-33.996093 19.367188-72.722656 8.992188-108.910156-.964844-2.898437-3.398438-5.058594-6.386719-5.671875-2.992188-.613281-6.082031.414063-8.109375 2.695313s-2.679687 5.472656-1.71875 8.371094c8.902344 31.886718 6.035156 65.910156-8.070313 95.863281-14.847656 29.703125-17.417968 76.148437-17.859374 92.082031-5.394532 3.496094-10.261719 7.746094-14.457032 12.621094-4.511718-10.507813-9.957031-20.585938-16.265625-30.125 1.1875-3.625 2.398438-7.261719 3.628907-10.9375 2.765624-8.269532 5.511718-16.539063 8.054687-24.832032 12.390625-40.472656 12.382813-80.496093 11.222656-121.34375-1-35.242187-4.148437-72.023437-30.167969-100.429687-1.085937-1.109375-2.253906-2.140625-3.488281-3.082031-.816406-.609375-1.597656-1.261719-2.339843-1.960938-2.144532-3.960937-6.992188-5.574218-11.082032-3.683594-4.085937 1.886719-6.003906 6.625-4.378906 10.824219 16.9375 44.042969 6.929688 147.449219-12.859375 190.074219-29.210937-56.046875-44.75-114.511719-39.03125-149.070312.707031-4.535157-2.296875-8.820313-6.804687-9.695313-4.507813-.875-8.898438 1.972656-9.9375 6.445313-1.410157 6.320312-33.496094 154.09375 7.824218 241.5625-2.792968 7.429687-4.941406 15.085937-6.417968 22.882812-3.5-12.03125-7.390626-23.679688-11.742188-34.730469-5.507812-15.121093-13.296875-29.316406-23.097656-42.085937-22.359375-28.089844-44.015625-62.8125-35.125-107.296875.71875-3.035157-.28125-6.21875-2.597656-8.304688-2.320313-2.085937-5.589844-2.742187-8.535157-1.707031-2.941406 1.03125-5.085937 3.589844-5.59375 6.667969-10.238281 51.335937 13.699219 90.101562 38.496094 121.265625 8.761719 11.453125 15.730469 24.175781 20.660156 37.726562 4.9375 12.644532 9.210938 25.539063 12.796875 38.628906-3.410156-2.175781-6.894531-4.265624-10.425781-6.417968-4.683594-2.824219-9.480469-5.707032-14.269531-8.898438-16.574219-12.902344-30.144532-29.253906-39.773438-47.921875-1.734375-3.609375-5.746094-5.527343-9.644531-4.605469-3.898437.917969-6.632813 4.421876-6.578125 8.425782 0 3.304687.523438 81.316406 45.867188 117.597656 30.328124 24.289062 21.113281 58.574219 16.554687 70.613281-13.855469 12.328125-15.265625 33.488281-3.167969 47.542969s33.230469 15.8125 47.484375 3.949219c15.042969 5.324219 30.90625 7.953125 46.863281 7.765625 16.289063.1875 32.476563-2.558594 47.785157-8.117188 6.792969 5.226563 15.113281 8.078125 23.683593 8.117188 20.261719.011718 37.242188-15.316406 39.289063-35.476563 2.050781-20.15625-11.496094-38.589843-31.347656-42.65625 8.976562-12.746093 24.382812-29.386719 45.089843-32.203125 15.480469-2.109375 31.574219-5.683594 43.523438-23.785156 5.191406-7.984375 8.910156-16.839844 10.972656-26.144531 1.03125-4.597657-1.859375-9.164063-6.460937-10.195313-4.597657-1.035156-9.164063 1.859375-10.195313 6.457032-1.597656 7.285156-4.488281 14.21875-8.535156 20.480468-7.371094 11.179688-16.050781 14.148438-31.574219 16.265625-17.472656 2.988281-33.402343 11.851563-45.15625 25.121094-.257812-6.722656-.699219-14.027344-1.417969-21.757813.269532-.398437.496094-.824218.683594-1.265624 4.808594-14.101563 13.082032-26.769532 24.0625-36.835938zm-57.667968-34.722656c-.117188 2.222656.644531 4.402344 2.125 6.066406 11.085937 36.125 16.273437 73.796875 15.359374 111.574219-.1875.675781-.292968 1.375-.304687 2.082031-3.519531 1.042969-6.871094 2.570312-9.96875 4.539062-.1875-.433593-.410156-.851562-.664063-1.246093-2.445312-3.027344-4.65625-6.234375-6.613281-9.601563-15.21875-27.332031-22.355469-58.425781-20.574219-89.660156.882813-17.015625 3.847657-33.859375 8.824219-50.15625 4.59375 8.492188 8.542969 17.316406 11.816407 26.402344zm-17.695313-309.804688v-.042968zm8.601563 41.207032c6.925781 20.515624 10.269531 42.070312 9.878906 63.71875 1.117187 39.375 1.152344 77.867187-10.476563 115.859374-2.5 8.164063-5.214843 16.296876-7.929687 24.429688-10.886719 28.128906-17.652344 57.683594-20.085938 87.75-1.890625 34.53125 6.101563 68.882812 23.039063 99.035156l.136719.222656c-9.304688-1.691406-18.746094-2.527343-28.203126-2.5-6.472656.007813-12.941406.402344-19.371093 1.1875-11.691407-26.03125-19.519531-53.628906-23.242188-81.921874 0-.066407 0-.144532 0-.210938-.949219-9.605469-.949219-19.28125 0-28.886719 2.949219-28.730469 17.773438-53.214843 33.484375-79.140625 4.164063-6.875 8.320313-13.941406 12.355469-21.082031v-.054687c2.5-4.445313 5.015625-8.890626 7.269531-13.421876 17.578125-35.363281 28.347656-109.859374 23.144532-164.984374zm-86.710938 76.195312c9.207031 33.804688 22.542969 66.34375 39.707031 96.886719-3.414062 5.914062-6.921875 11.785156-10.410156 17.554687-6.324219 10.445313-12.707031 21.042969-18.347656 32.042969-15.632813-44.28125-15.050781-101.828125-10.949219-146.484375zm-43.996094 245.921875c-21.425781-17.144531-31.222656-46.804687-35.703125-70.136719 7.292969 9.273438 15.921875 17.414063 25.601563 24.160156 5.015625 3.34375 10.035156 6.367188 14.929687 9.316407 12.832031 6.433593 24.097657 15.605469 33 26.863281 3.859375 27.757812 11.496094 54.859375 22.699219 80.546875-6.457031 1.601563-12.722656 3.890625-18.6875 6.828125-4.128906-1.738281-8.5625-2.636719-13.039062-2.644531-.9375 0-1.816407.203125-2.738282.269531 6.980469-28.015625-3.242187-57.511719-26.0625-75.203125zm11.734375 109.066406c.007813-3.183593.914063-6.296875 2.617188-8.988281 2.261719-.714844 4.117187-2.347656 5.121093-4.496094l.453126-1.03125c6.621093-4.019531 15.117187-3.0625 20.675781 2.328125 5.5625 5.386719 6.789062 13.847657 2.980469 20.59375-3.804688 6.742188-11.683594 10.066407-19.167969 8.089844-7.488281-1.972656-12.699219-8.753906-12.679688-16.496094zm48.894531 12.046875c4.097657-10.453125 2.671876-22.265625-3.796874-31.445312 12.972656-4.285156 26.570312-6.382813 40.234374-6.203125 11.914063-.117188 23.785157 1.433593 35.269532 4.617187-4.679688 10.617188-4.320313 22.777344.980468 33.101563-23.78125 6.621093-48.917968 6.597656-72.6875-.070313zm130.304688-17.382812c.054688 11.5-8.605469 21.175781-20.042969 22.386718-11.4375 1.207032-21.933593-6.441406-24.285156-17.695312-2.351563-11.257812 4.207031-22.46875 15.167969-25.9375.769531.410156 1.601562.699219 2.460937.851562.363281.050782.730469.078126 1.097657.078126 1.867187-.035157 3.667968-.691407 5.121093-1.859376 11.539063.976563 20.425781 10.597657 20.480469 22.175782zm-32.792969-156.515625c4.347657-7.214844 10.351563-13.285157 17.519531-17.707031 1.742188-.351563 3.332032-1.246094 4.53125-2.5625l.09375-.058594c5.070313-2.160156 10.269532-3.996094 15.570313-5.496094 14.417969-2.867188 27.425781-10.554688 36.890625-21.800781 12.703125-18.480469 20.886719-39.683594 23.894531-61.902344 4.355469 15.640625 5.667969 31.976563 3.863281 48.113281-4.957031 28.773438-14.128906 47.296875-28.011718 56.652344-5.859375 3.691406-12.019532 6.882812-18.417969 9.539062-10.136719 3.980469-19.585937 9.535157-27.996094 16.460938-6.738281 6.074219-12.613281 13.042969-17.460937 20.710938-2.472656-14.21875-5.972656-28.238282-10.476563-41.949219zm0 0"/><path d="m59.796875 68.292969c0 4.714843-3.820313 8.535156-8.535156 8.535156-4.710938 0-8.53125-3.820313-8.53125-8.535156 0-4.710938 3.820312-8.53125 8.53125-8.53125 4.714843 0 8.535156 3.820312 8.535156 8.53125zm0 0"/><path d="m324.328125 85.359375c-14.136719 0-25.597656 11.460937-25.597656 25.601563 0 14.136718 11.460937 25.597656 25.597656 25.597656 14.140625 0 25.601563-11.460938 25.601563-25.597656 0-14.140626-11.460938-25.601563-25.601563-25.601563zm0 34.132813c-4.710937 0-8.53125-3.820313-8.53125-8.53125 0-4.714844 3.820313-8.535157 8.53125-8.535157 4.714844 0 8.535156 3.820313 8.535156 8.535157 0 4.710937-3.820312 8.53125-8.535156 8.53125zm0 0"/><path d="m324.328125 59.761719c0 4.710937-3.820313 8.53125-8.53125 8.53125-4.714844 0-8.535156-3.820313-8.535156-8.53125 0-4.714844 3.820312-8.535157 8.535156-8.535157 4.710937 0 8.53125 3.820313 8.53125 8.535157zm0 0"/></svg>