<svg id="Capa_1" enable-background="new 0 0 512 512" height="512" viewBox="0 0 512 512" width="512" xmlns="http://www.w3.org/2000/svg"><path d="m375.47 80.445-129.03 21.945-13.992 21.94 13.992 21.94 129.03 21.945 129.03-21.945v-43.88z" fill="#e2e2e2"/><path d="m375.47 168.215-129.03 21.945-238.94 43.89 248.5 18.07 248.5-18.07v-43.89z" fill="#e2e2e2"/><path d="m256 255.995-248.5 21.945v43.89l248.5 21.945 248.5-21.945v-43.89z" fill="#e2e2e2"/><path d="m256 343.775-248.5 21.945v43.89l248.5 21.945 248.5-21.945v-43.89z" fill="#e2e2e2"/><path d="m7.5 409.61v32.886c0 6.077 4.927 11.004 11.004 11.004h474.992c6.077 0 11.004-4.927 11.004-11.004v-32.886z" fill="#fc5c70"/><path d="m37.5 442.496v-32.886h-30v32.886c0 6.077 4.927 11.004 11.004 11.004h30c-6.077 0-11.004-4.927-11.004-11.004z" fill="#f5334c"/><path d="m7.5 321.83h497v43.89h-497z" fill="#fc5c70"/><path d="m7.5 234.05h497v43.89h-497z" fill="#fc5c70"/><path d="m7.5 234.05h30v43.89h-30z" fill="#f5334c"/><path d="m7.5 277.94h30v43.89h-30z" fill="#c1bfc5"/><path d="m7.5 365.72h30v43.89h-30z" fill="#c1bfc5"/><path d="m7.5 321.83h30v43.89h-30z" fill="#f5334c"/><path d="m504.5 146.27v43.89h-258.06l-13.992-21.945 13.992-21.945z" fill="#fc5c70"/><path d="m493.496 58.5h-247.056l-13.992 21.945 13.992 21.945h258.06v-32.886c0-6.077-4.927-11.004-11.004-11.004z" fill="#fc5c70"/><path d="m18.504 58.5c-6.077 0-11.004 4.927-11.004 11.004v164.546h238.94v-175.55z" fill="#007dcf"/><path d="m48.504 58.5h-30c-6.077 0-11.004 4.927-11.004 11.004v164.546h30v-164.546c0-6.077 4.927-11.004 11.004-11.004z" fill="#155ac7"/><g fill="#e2e2e2"><path d="m76.894 90.065-5.643-.82c-1.174-.171-2.19-.908-2.715-1.972l-2.524-5.114c-1.323-2.68-5.144-2.68-6.467 0l-2.524 5.114c-.525 1.064-1.54 1.802-2.715 1.972l-5.643.82c-2.958.43-4.138 4.064-1.998 6.15l4.083 3.98c.85.828 1.238 2.022 1.037 3.192l-.964 5.62c-.505 2.946 2.587 5.192 5.232 3.801l5.047-2.654c1.05-.552 2.305-.552 3.356 0l5.047 2.654c2.645 1.391 5.737-.856 5.232-3.801l-.964-5.62c-.201-1.17.187-2.363 1.037-3.192l4.083-3.98c2.141-2.086.96-5.72-1.997-6.15z"/><path d="m141.085 90.065-5.643-.82c-1.174-.171-2.19-.908-2.715-1.972l-2.524-5.114c-1.323-2.68-5.144-2.68-6.467 0l-2.524 5.114c-.525 1.064-1.54 1.802-2.715 1.972l-5.643.82c-2.958.43-4.138 4.064-1.998 6.15l4.083 3.98c.85.828 1.238 2.022 1.037 3.192l-.964 5.62c-.505 2.946 2.587 5.192 5.232 3.801l5.047-2.654c1.05-.552 2.305-.552 3.356 0l5.047 2.654c2.645 1.391 5.737-.856 5.232-3.801l-.964-5.62c-.201-1.17.187-2.363 1.037-3.192l4.083-3.98c2.142-2.086.961-5.72-1.997-6.15z"/><path d="m205.276 90.065-5.643-.82c-1.174-.171-2.19-.908-2.715-1.972l-2.524-5.114c-1.323-2.68-5.144-2.68-6.467 0l-2.524 5.114c-.525 1.064-1.54 1.802-2.715 1.972l-5.643.82c-2.958.43-4.139 4.064-1.998 6.15l4.083 3.98c.85.828 1.238 2.022 1.037 3.192l-.964 5.62c-.505 2.946 2.587 5.192 5.232 3.801l5.047-2.654c1.05-.552 2.305-.552 3.356 0l5.047 2.654c2.645 1.391 5.737-.856 5.232-3.801l-.964-5.62c-.201-1.17.187-2.363 1.037-3.192l4.083-3.98c2.142-2.086.961-5.72-1.997-6.15z"/><path d="m76.894 139.65-5.643-.82c-1.174-.171-2.19-.908-2.715-1.972l-2.524-5.114c-1.323-2.68-5.144-2.68-6.467 0l-2.524 5.114c-.525 1.064-1.54 1.802-2.715 1.972l-5.643.82c-2.958.43-4.138 4.064-1.998 6.15l4.083 3.98c.85.828 1.238 2.022 1.037 3.192l-.964 5.62c-.505 2.946 2.587 5.192 5.232 3.801l5.047-2.654c1.05-.552 2.305-.552 3.356 0l5.047 2.654c2.645 1.391 5.737-.856 5.232-3.801l-.964-5.62c-.201-1.17.187-2.363 1.037-3.192l4.083-3.98c2.141-2.086.96-5.72-1.997-6.15z"/><path d="m141.085 139.65-5.643-.82c-1.174-.171-2.19-.908-2.715-1.972l-2.524-5.114c-1.323-2.68-5.144-2.68-6.467 0l-2.524 5.114c-.525 1.064-1.54 1.802-2.715 1.972l-5.643.82c-2.958.43-4.138 4.064-1.998 6.15l4.083 3.98c.85.828 1.238 2.022 1.037 3.192l-.964 5.62c-.505 2.946 2.587 5.192 5.232 3.801l5.047-2.654c1.05-.552 2.305-.552 3.356 0l5.047 2.654c2.645 1.391 5.737-.856 5.232-3.801l-.964-5.62c-.201-1.17.187-2.363 1.037-3.192l4.083-3.98c2.142-2.086.961-5.72-1.997-6.15z"/><path d="m205.276 139.65-5.643-.82c-1.174-.171-2.19-.908-2.715-1.972l-2.524-5.114c-1.323-2.68-5.144-2.68-6.467 0l-2.524 5.114c-.525 1.064-1.54 1.802-2.715 1.972l-5.643.82c-2.958.43-4.139 4.064-1.998 6.15l4.083 3.98c.85.828 1.238 2.022 1.037 3.192l-.964 5.62c-.505 2.946 2.587 5.192 5.232 3.801l5.047-2.654c1.05-.552 2.305-.552 3.356 0l5.047 2.654c2.645 1.391 5.737-.856 5.232-3.801l-.964-5.62c-.201-1.17.187-2.363 1.037-3.192l4.083-3.98c2.142-2.086.961-5.72-1.997-6.15z"/><path d="m76.894 189.235-5.643-.82c-1.174-.171-2.19-.908-2.715-1.972l-2.524-5.114c-1.323-2.68-5.144-2.68-6.467 0l-2.524 5.114c-.525 1.064-1.54 1.802-2.715 1.972l-5.643.82c-2.958.43-4.138 4.064-1.998 6.15l4.083 3.98c.85.828 1.238 2.022 1.037 3.192l-.964 5.62c-.505 2.946 2.587 5.192 5.232 3.801l5.047-2.654c1.05-.552 2.305-.552 3.356 0l5.047 2.654c2.645 1.391 5.737-.856 5.232-3.801l-.964-5.62c-.201-1.17.187-2.363 1.037-3.192l4.083-3.98c2.141-2.085.96-5.72-1.997-6.15z"/><path d="m141.085 189.235-5.643-.82c-1.174-.171-2.19-.908-2.715-1.972l-2.524-5.114c-1.323-2.68-5.144-2.68-6.467 0l-2.524 5.114c-.525 1.064-1.54 1.802-2.715 1.972l-5.643.82c-2.958.43-4.138 4.064-1.998 6.15l4.083 3.98c.85.828 1.238 2.022 1.037 3.192l-.964 5.62c-.505 2.946 2.587 5.192 5.232 3.801l5.047-2.654c1.05-.552 2.305-.552 3.356 0l5.047 2.654c2.645 1.391 5.737-.856 5.232-3.801l-.964-5.62c-.201-1.17.187-2.363 1.037-3.192l4.083-3.98c2.142-2.085.961-5.72-1.997-6.15z"/><path d="m205.276 189.235-5.643-.82c-1.174-.171-2.19-.908-2.715-1.972l-2.524-5.114c-1.323-2.68-5.144-2.68-6.467 0l-2.524 5.114c-.525 1.064-1.54 1.802-2.715 1.972l-5.643.82c-2.958.43-4.139 4.064-1.998 6.15l4.083 3.98c.85.828 1.238 2.022 1.037 3.192l-.964 5.62c-.505 2.946 2.587 5.192 5.232 3.801l5.047-2.654c1.05-.552 2.305-.552 3.356 0l5.047 2.654c2.645 1.391 5.737-.856 5.232-3.801l-.964-5.62c-.201-1.17.187-2.363 1.037-3.192l4.083-3.98c2.142-2.085.961-5.72-1.997-6.15z"/></g><path d="m512 69.504c0-10.203-8.301-18.504-18.504-18.504h-474.992c-10.203 0-18.504 8.301-18.504 18.504v372.992c0 10.203 8.301 18.504 18.504 18.504h474.992c10.203 0 18.504-8.301 18.504-18.504zm-497 259.826h482v28.89h-482zm482-146.67h-243.06v-28.89h243.06zm0-43.89h-243.06v-28.88h243.06zm-243.06 58.89h243.06v28.89h-243.06zm243.06 43.89v28.89s-377.504 0-377.667 0c-4.308 0-7.892 3.995-7.461 8.267.375 3.722 3.727 6.733 7.461 6.733h377.667v28.89h-482v-28.89h74.334c4.045 0 7.5-3.45 7.5-7.5 0-4.038-3.457-7.5-7.5-7.5h-74.334v-28.89zm0-172.046v25.386h-243.06v-28.89h239.556c1.932 0 3.504 1.572 3.504 3.504zm-478.496-3.504h220.436v160.55h-223.94v-157.046c0-1.932 1.572-3.504 3.504-3.504zm478.496 376.496c0 1.932-1.572 3.504-3.504 3.504h-474.992c-1.932 0-3.504-1.572-3.504-3.504v-25.386h359.537c4.142 0 7.5-3.358 7.5-7.5 0-4.019-3.486-7.5-7.5-7.5h-359.537v-28.89h482v28.89h-92.463c-4.043 0-7.5 3.452-7.5 7.5 0 4.142 3.358 7.5 7.5 7.5h92.463z"/></svg>