<svg height="512pt" viewBox="0 -77 512 512" width="512pt" xmlns="http://www.w3.org/2000/svg"><path d="m503.46875 25.601562v307.199219c-.03125 9.414063-7.65625 17.039063-17.070312 17.066407h-136.53125v-341.335938h136.53125c9.414062.03125 17.039062 7.65625 17.070312 17.070312zm0 0" fill="#c52828"/><path d="m477.867188 25.601562v307.199219c.683593 8.609375-5.632813 16.1875-14.226563 17.066407h-113.773437v-341.335938h113.773437c8.59375.878906 14.910156 8.457031 14.226563 17.070312zm0 0" fill="#f44335"/><path d="m8.53125 25.601562v307.199219c.03125 9.414063 7.65625 17.039063 17.070312 17.066407h136.53125v-341.335938h-136.53125c-9.414062.03125-17.039062 7.65625-17.070312 17.070312zm0 0" fill="#0377bc"/><path d="m8.53125 25.601562v307.199219c-.683594 8.609375 5.632812 16.1875 14.226562 17.066407h113.773438v-341.335938h-113.773438c-8.59375.878906-14.910156 8.457031-14.226562 17.070312zm0 0" fill="#02a9f4"/><path d="m162.132812 8.53125h187.734376v341.335938h-187.734376zm0 0" fill="#cfd8dc"/><path d="m162.132812 8.53125h162.132813v341.335938h-162.132813zm0 0" fill="#f5f5f5"/><path d="m486.398438 0h-460.796876c-14.140624 0-25.601562 11.460938-25.601562 25.601562v307.199219c0 14.136719 11.460938 25.597657 25.601562 25.597657h460.796876c14.140624 0 25.601562-11.460938 25.601562-25.597657v-307.199219c0-14.140624-11.460938-25.601562-25.601562-25.601562zm-145.066407 17.066406v324.269532h-170.664062v-324.269532zm-324.265625 315.734375v-307.199219c0-4.714843 3.820313-8.535156 8.535156-8.535156h128v324.269532h-128c-4.714843-.003907-8.535156-3.824219-8.535156-8.535157zm477.867188 0c0 4.710938-3.820313 8.53125-8.535156 8.53125h-128v-324.265625h128c4.714843 0 8.535156 3.820313 8.535156 8.535156zm0 0"/></svg>