<?xml version="1.0" encoding="windows-1252"?>
<!-- Generator: Adobe Illustrator 19.0.0, SVG Export Plug-In . SVG Version: 6.00 Build 0)  -->
<svg version="1.1" id="Layer_1" xmlns="http://www.w3.org/2000/svg" xmlns:xlink="http://www.w3.org/1999/xlink" x="0px" y="0px" viewBox="0 0 512 512" style="enable-background:new 0 0 512 512;" xml:space="preserve">
<g>
	<g>
		<path d="M442.709,305.885c-4.199,0-7.604,3.405-7.604,7.604v16.737c0,4.199,3.405,7.604,7.604,7.604s7.604-3.405,7.604-7.604    v-16.737C450.313,309.289,446.908,305.885,442.709,305.885z"/>
	</g>
</g>
<g>
	<g>
		<path d="M471.049,305.885c-4.199,0-7.604,3.405-7.604,7.604v16.737c0,4.199,3.405,7.604,7.604,7.604s7.604-3.405,7.604-7.604    v-16.737C478.653,309.289,475.249,305.885,471.049,305.885z"/>
	</g>
</g>
<g>
	<g>
		<path d="M445.07,238.7c-30.688-19.654-68.669-32.864-109.955-38.59v-37.142c0-4.199-3.405-7.604-7.604-7.604h-21.205V72.212    h20.782c4.199,0,7.604-3.405,7.604-7.604V30.136c0-4.199-3.405-7.604-7.604-7.604h-28.519c-23.127,0-41.941,18.815-41.941,41.942    v28.519c0,4.199,3.405,7.604,7.604,7.604s7.604-3.405,7.604-7.604V64.475c0-14.742,11.993-26.734,26.734-26.734h20.915v19.263    h-20.782c-4.199,0-7.604,3.405-7.604,7.604v90.758h-19.263v-36.52c0-4.199-3.405-7.604-7.604-7.604s-7.604,3.405-7.604,7.604    v36.52h-99.353c-4.199,0-7.604,3.405-7.604,7.604v64.818c-7.481,3.824-14.642,7.978-21.432,12.459    c-3.506,2.314-4.471,7.03-2.159,10.535c2.314,3.506,7.03,4.471,10.535,2.159c39.921-26.345,93.629-40.855,151.23-40.855    c56.407,0,109.332,14,149.024,39.421c1.882,1.204,3.71,2.434,5.508,3.675c-26.666,23.176-42.197,51.221-44.505,80.388h-8.379    c-3.784-32.774-31.688-58.31-65.46-58.31s-61.677,25.536-65.46,58.31h-16.57c-3.784-32.774-31.688-58.31-65.46-58.31    s-61.677,25.536-65.46,58.31H79.645v-3.464c3.083-22.905,15.715-44.79,37.011-63.86c3.128-2.801,3.393-7.609,0.592-10.738    c-2.801-3.128-7.608-3.393-10.738-0.592c-11.043,9.889-20.025,20.516-26.866,31.681v-21.303c0-23.755-19.326-43.08-43.081-43.08    H7.604c-4.199,0-7.604,3.405-7.604,7.604v75.88c0,14.701,7.406,27.699,18.678,35.476C7.406,350.953,0,363.95,0,378.651v75.88    c0,4.199,3.405,7.604,7.604,7.604h28.96c23.755,0,43.081-19.326,43.081-43.081v-21.25c11.341,18.529,28.527,35.466,50.971,49.84    c42.111,26.97,97.948,41.822,157.228,41.822c59.278,0,115.116-14.853,157.227-41.822C488.23,420.004,512,382.901,512,343.173    C512,303.445,488.23,266.342,445.07,238.7z M319.907,198.352c-10.532-0.973-21.239-1.475-32.063-1.475    c-44.452,0.001-86.812,8.313-122.966,23.794v-50.098h99.353h34.471h21.205V198.352z M36.564,446.928H15.208v-68.276    c0-15.369,12.504-27.873,27.872-27.873h20.901c0.116,1.493,0.456,68.276,0.456,68.276    C64.437,434.424,51.933,446.928,36.564,446.928z M63.989,335.57H43.08c-15.368,0-27.872-12.503-27.872-27.872v-68.277h21.356    c15.369,0,27.873,12.504,27.873,27.872C64.437,267.294,64.104,334.06,63.989,335.57z M324.033,292.468    c27.958,0,50.704,22.746,50.704,50.704c0,27.958-22.746,50.704-50.704,50.704c-27.958,0-50.704-22.746-50.704-50.704    C273.329,315.214,296.074,292.468,324.033,292.468z M176.543,292.468c27.958,0,50.704,22.746,50.704,50.704    c0,27.958-22.746,50.704-50.704,50.704s-50.704-22.746-50.704-50.704C125.838,315.214,148.584,292.468,176.543,292.468z     M454.795,421.769c-5.034-4.193-9.687-8.581-13.874-13.098c-2.853-3.079-7.665-3.263-10.746-0.408    c-3.08,2.854-3.263,7.666-0.408,10.746c3.87,4.175,8.091,8.242,12.604,12.158c-1.798,1.24-3.624,2.469-5.503,3.672    c-39.693,25.421-92.617,39.421-149.024,39.421c-56.408,0-109.333-14-149.025-39.421c-34.48-22.083-55.123-50.382-59.173-80.634    v-3.427h31.438c3.785,32.773,31.689,58.307,65.46,58.307c33.771,0,61.675-25.534,65.46-58.307h16.57    c3.785,32.773,31.689,58.307,65.46,58.307c33.771,0,61.675-25.534,65.46-58.307h8.37c1.169,15.112,5.819,29.862,13.888,43.946    c1.405,2.451,3.968,3.825,6.605,3.825c1.281,0,2.581-0.324,3.774-1.008c3.644-2.089,4.905-6.734,2.818-10.378    c-8.083-14.107-12.181-28.907-12.181-43.989c0-28.23,14.88-55.953,42.03-78.597c27.233,22.64,41.994,49.988,41.994,78.596    C496.792,371.78,482.03,399.129,454.795,421.769z"/>
	</g>
</g>
<g>
	<g>
		<path d="M216.576,331.449c-1.179-4.031-5.407-6.342-9.433-5.163c-4.031,1.179-6.342,5.403-5.163,9.433    c0.705,2.407,1.062,4.915,1.062,7.455c0,14.612-11.888,26.498-26.498,26.498c-14.611,0-26.498-11.888-26.498-26.498    c0-14.611,11.888-26.498,26.498-26.498c4.193,0,8.201,0.949,11.912,2.82c3.749,1.89,8.322,0.384,10.214-3.366    c1.891-3.749,0.384-8.322-3.366-10.214c-5.853-2.952-12.165-4.449-18.758-4.449c-22.997,0-41.706,18.71-41.706,41.706    c-0.002,22.996,18.708,41.706,41.704,41.706c22.997,0,41.706-18.71,41.706-41.706    C218.249,339.188,217.686,335.243,216.576,331.449z"/>
	</g>
</g>
<g>
	<g>
		<path d="M324.033,301.467c-22.997,0-41.706,18.71-41.706,41.706c-0.001,22.996,18.709,41.706,41.706,41.706    c22.996,0,41.706-18.71,41.706-41.706S347.03,301.467,324.033,301.467z M324.033,369.672c-14.612,0-26.498-11.888-26.498-26.498    c-0.001-14.611,11.887-26.498,26.498-26.498c14.611,0,26.498,11.888,26.498,26.498    C350.531,357.785,338.644,369.672,324.033,369.672z"/>
	</g>
</g>
<g>
</g>
<g>
</g>
<g>
</g>
<g>
</g>
<g>
</g>
<g>
</g>
<g>
</g>
<g>
</g>
<g>
</g>
<g>
</g>
<g>
</g>
<g>
</g>
<g>
</g>
<g>
</g>
<g>
</g>
</svg>