<?xml version="1.0" encoding="windows-1252"?>
<!-- Generator: Adobe Illustrator 19.0.0, SVG Export Plug-In . SVG Version: 6.00 Build 0)  -->
<svg version="1.1" id="Layer_1" xmlns="http://www.w3.org/2000/svg" xmlns:xlink="http://www.w3.org/1999/xlink" x="0px" y="0px" viewBox="0 0 512 512" style="enable-background:new 0 0 512 512;" xml:space="preserve">
<polygon style="fill:#FFA91F;" points="327.511,162.971 327.511,206.81 212.407,224.198 157.273,232.521 157.273,162.971 "/>
<polygon style="fill:#E2901A;" points="212.407,162.971 212.407,224.198 157.273,232.521 157.273,162.971 "/>
<path style="fill:#71B4E0;" d="M298.702,162.97h-34.471V64.475c0-18.934,15.404-34.338,34.337-34.338h28.519v34.471h-28.386v98.362  H298.702z"/>
<ellipse style="fill:#FFD41D;" cx="287.845" cy="343.172" rx="216.551" ry="138.686"/>
<path style="fill:#EFC71D;" d="M363.879,431.68c-119.599,0-216.553-62.094-216.553-138.691c0-24.869,10.23-48.206,28.128-68.389  c-62.453,24.333-104.163,68.332-104.163,118.573c0,76.597,96.954,138.691,216.553,138.691c80.767,0,151.198-28.322,188.425-70.302  C443.505,424.328,405.033,431.68,363.879,431.68z"/>
<g>
	<path style="fill:#FFA91F;" d="M504.396,343.174c0,33.579-18.625,64.36-49.618,88.338c-30.994-23.978-49.618-54.759-49.618-88.338   s18.625-64.36,49.618-88.348C485.771,278.814,504.396,309.595,504.396,343.174z"/>
	<path style="fill:#FFA91F;" d="M72.041,343.174H43.08c-19.593,0-35.477,15.883-35.477,35.477v75.88h28.961   c19.593,0,35.477-15.883,35.477-35.477V343.174z"/>
	<path style="fill:#FFA91F;" d="M7.604,231.817h28.961c19.593,0,35.477,15.883,35.477,35.477v75.88H43.08   c-19.593,0-35.477-15.883-35.477-35.477v-75.88H7.604z"/>
	<circle style="fill:#FFA91F;" cx="176.544" cy="343.172" r="58.307"/>
	<circle style="fill:#FFA91F;" cx="324.03" cy="343.172" r="58.307"/>
</g>
<g>
	<circle style="fill:#97F2E3;" cx="176.544" cy="343.172" r="34.102"/>
	<circle style="fill:#97F2E3;" cx="324.03" cy="343.172" r="34.102"/>
</g>
<path d="M442.709,305.885c-4.199,0-7.604,3.405-7.604,7.604v16.737c0,4.199,3.405,7.604,7.604,7.604s7.604-3.405,7.604-7.604  v-16.737C450.313,309.289,446.908,305.885,442.709,305.885z"/>
<path d="M471.049,305.885c-4.199,0-7.604,3.405-7.604,7.604v16.737c0,4.199,3.405,7.604,7.604,7.604  c4.199,0,7.604-3.405,7.604-7.604v-16.737C478.653,309.289,475.249,305.885,471.049,305.885z"/>
<path d="M445.07,238.7c-30.688-19.654-68.669-32.864-109.955-38.59v-37.142c0-4.199-3.405-7.604-7.604-7.604h-21.205V72.212h20.782  c4.199,0,7.604-3.405,7.604-7.604V30.137c0-4.199-3.405-7.604-7.604-7.604h-28.519c-23.127,0-41.941,18.815-41.941,41.942v28.519  c0,4.199,3.405,7.604,7.604,7.604s7.604-3.405,7.604-7.604V64.475c0-14.742,11.993-26.735,26.733-26.735h20.915v19.263h-20.782  c-4.199,0-7.604,3.405-7.604,7.604v90.758h-19.263v-36.52c0-4.199-3.405-7.604-7.604-7.604c-4.199,0-7.604,3.405-7.604,7.604v36.52  h-99.353c-4.199,0-7.604,3.405-7.604,7.604v64.818c-7.481,3.824-14.642,7.978-21.432,12.459c-3.506,2.314-4.471,7.03-2.159,10.535  c2.314,3.506,7.03,4.471,10.535,2.159c39.921-26.345,93.629-40.855,151.23-40.855c56.407,0,109.332,14,149.024,39.421  c1.882,1.204,3.71,2.434,5.508,3.675c-26.666,23.176-42.197,51.221-44.505,80.388h-8.379c-3.784-32.774-31.688-58.31-65.46-58.31  s-61.677,25.536-65.46,58.31h-16.57c-3.784-32.774-31.688-58.31-65.46-58.31s-61.677,25.536-65.46,58.31H79.645v-3.464  c3.083-22.905,15.715-44.79,37.011-63.86c3.128-2.801,3.393-7.609,0.592-10.738c-2.801-3.128-7.608-3.393-10.738-0.592  c-11.043,9.889-20.025,20.517-26.866,31.681v-21.303c0-23.755-19.326-43.08-43.081-43.08H7.604c-4.199,0-7.604,3.405-7.604,7.604  v75.88c0,14.701,7.406,27.699,18.678,35.476C7.406,350.953,0,363.95,0,378.651v75.88c0,4.199,3.405,7.604,7.604,7.604h28.96  c23.755,0,43.081-19.326,43.081-43.081v-21.25c11.341,18.529,28.527,35.466,50.971,49.84c42.111,26.97,97.948,41.822,157.228,41.822  c59.278,0,115.116-14.853,157.227-41.822C488.23,420.004,512,382.901,512,343.173S488.23,266.342,445.07,238.7z M164.877,220.671  v-50.098h99.353h34.471h21.205v27.779c-10.532-0.973-21.239-1.475-32.063-1.475C243.392,196.878,201.031,205.19,164.877,220.671z   M324.033,292.468c27.958,0,50.704,22.746,50.704,50.704c0,27.958-22.746,50.704-50.704,50.704  c-27.958,0-50.704-22.746-50.704-50.704C273.329,315.214,296.074,292.468,324.033,292.468z M176.543,292.468  c27.958,0,50.704,22.746,50.704,50.704c0,27.958-22.746,50.704-50.704,50.704s-50.704-22.746-50.704-50.704  C125.838,315.214,148.584,292.468,176.543,292.468z M15.208,307.698v-68.276h21.356c15.369,0,27.873,12.504,27.873,27.872  c0,0-0.333,66.766-0.448,68.276H43.08C27.712,335.57,15.208,323.067,15.208,307.698z M64.437,419.055  c0,15.369-12.504,27.873-27.873,27.873H15.208v-68.276c0-15.369,12.504-27.873,27.872-27.873h20.901  C64.096,352.272,64.437,419.055,64.437,419.055z M454.795,421.769c-5.034-4.193-9.687-8.581-13.874-13.098  c-2.853-3.079-7.665-3.263-10.746-0.408c-3.08,2.854-3.263,7.666-0.408,10.746c3.87,4.175,8.091,8.242,12.604,12.158  c-1.798,1.24-3.624,2.469-5.503,3.672c-39.693,25.421-92.617,39.421-149.024,39.421c-56.408,0-109.333-14-149.025-39.421  c-34.48-22.083-55.123-50.382-59.173-80.634v-3.427h31.438c3.785,32.773,31.689,58.307,65.46,58.307s61.675-25.534,65.46-58.307  h16.571c3.785,32.773,31.689,58.307,65.46,58.307s61.675-25.534,65.46-58.307h8.37c1.169,15.112,5.819,29.862,13.888,43.946  c1.405,2.452,3.968,3.825,6.605,3.825c1.282,0,2.581-0.324,3.774-1.008c3.644-2.089,4.905-6.734,2.818-10.378  c-8.083-14.107-12.181-28.907-12.181-43.989c0-28.23,14.88-55.953,42.03-78.597c27.233,22.64,41.994,49.988,41.994,78.596  C496.792,371.78,482.03,399.129,454.795,421.769z"/>
<path d="M176.543,384.88c22.997,0,41.706-18.71,41.706-41.706c0-3.986-0.563-7.93-1.673-11.724  c-1.179-4.031-5.407-6.342-9.433-5.163c-4.031,1.179-6.342,5.403-5.163,9.433c0.705,2.407,1.062,4.915,1.062,7.455  c0,14.612-11.888,26.498-26.498,26.498c-14.611,0-26.498-11.888-26.498-26.498s11.888-26.498,26.498-26.498  c4.193,0,8.201,0.949,11.912,2.82c3.749,1.89,8.322,0.384,10.214-3.366c1.891-3.749,0.384-8.322-3.366-10.214  c-5.853-2.952-12.165-4.449-18.758-4.449c-22.997,0-41.706,18.71-41.706,41.706C134.836,366.17,153.546,384.88,176.543,384.88z"/>
<path d="M324.033,384.88c22.996,0,41.706-18.71,41.706-41.706c0-22.996-18.71-41.706-41.706-41.706  c-22.997,0-41.706,18.71-41.706,41.706C282.326,366.17,301.036,384.88,324.033,384.88z M324.033,316.675  c14.611,0,26.498,11.888,26.498,26.498c0,14.612-11.888,26.498-26.498,26.498c-14.612,0-26.498-11.888-26.498-26.498  C297.534,328.563,309.421,316.675,324.033,316.675z"/>
<g>
</g>
<g>
</g>
<g>
</g>
<g>
</g>
<g>
</g>
<g>
</g>
<g>
</g>
<g>
</g>
<g>
</g>
<g>
</g>
<g>
</g>
<g>
</g>
<g>
</g>
<g>
</g>
<g>
</g>
</svg>